{"title":"18+ Crazy Lake 2016 UNCENSORED Movies HC HDRip XviD New +Sample ","magnet":"magnet:?xt=urn:btih:3845c2c1f56e53df4e81d7044237d88e016d4c09&dn=18%2B+Crazy+Lake+2016+UNCENSORED+Movies+HC+HDRip+XviD+New+%2BSample+&tr=udp%3A%2F%2Ftracker.leechers-paradise.org%3A6969&tr=udp%3A%2F%2Fzer0day.ch%3A1337&tr=udp%3A%2F%2Fopen.demonii.com%3A1337&tr=udp%3A%2F%2Ftracker.coppersurfer.tk%3A6969&tr=udp%3A%2F%2Fexodus.desync.com%3A6969","uploader":"basicssom","categoryP":"video","categoryS":"movies","size":"739071686","seeders":"2","leechers":"315","description":"----------------------------------------------------------------\r\n18+ Crazy Lake 2016 UNCENSORED Movies HC HDRip XviD AAC New Source with Sample &#x263B;rDX&#x263B;\r\n\r\nSCREEN SHOTS &amp; POSTER:\r\n   <a href=\"\nhttp://postimage.co.nr/2017/7/1/premium/index.html\" rel=\"nofollow\" target=\"_NEW\">\nhttp://postimage.co.nr/2017/7/1/premium/index.html</a>  <a href=\"\nhttp://postimage.co.nr/2017/7/1/premium/1.html\" rel=\"nofollow\" target=\"_NEW\">\nhttp://postimage.co.nr/2017/7/1/premium/1.html</a>   <a href=\"\nhttp://postimage.co.nr/2017/7/1/premium/2.html\" rel=\"nofollow\" target=\"_NEW\">\nhttp://postimage.co.nr/2017/7/1/premium/2.html</a>   <a href=\"\nhttp://postimage.co.nr/2017/7/1/premium/3.html\" rel=\"nofollow\" target=\"_NEW\">\nhttp://postimage.co.nr/2017/7/1/premium/3.html</a>   <a href=\"\nhttp://postimage.co.nr/2017/7/1/premium/4.html\" rel=\"nofollow\" target=\"_NEW\">\nhttp://postimage.co.nr/2017/7/1/premium/4.html</a>   <a href=\"\nhttp://postimage.co.nr/2017/7/1/premium/5.html\" rel=\"nofollow\" target=\"_NEW\">\nhttp://postimage.co.nr/2017/7/1/premium/5.html</a>   <a href=\"\nhttp://postimage.co.nr/2017/7/1/premium/6.html\" rel=\"nofollow\" target=\"_NEW\">\nhttp://postimage.co.nr/2017/7/1/premium/6.html</a>   <a href=\"\nhttp://postimage.co.nr/2017/7/1/premium/7.html\" rel=\"nofollow\" target=\"_NEW\">\nhttp://postimage.co.nr/2017/7/1/premium/7.html</a>   <a href=\"\nhttp://postimage.co.nr/2017/7/1/premium/8.html\" rel=\"nofollow\" target=\"_NEW\">\nhttp://postimage.co.nr/2017/7/1/premium/8.html</a>   <a href=\"\nhttp://postimage.co.nr/2017/7/1/premium/9.html\" rel=\"nofollow\" target=\"_NEW\">\nhttp://postimage.co.nr/2017/7/1/premium/9.html</a>   <a href=\"\nhttp://postimage.co.nr/2017/7/1/premium/10.html\" rel=\"nofollow\" target=\"_NEW\">\nhttp://postimage.co.nr/2017/7/1/premium/10.html</a>\r\n\r\nFile size                                : 698 MiB\r\nDuration                                 : 1 h 19 min\r\nOverall bit rate mode                    : Constant\r\nOverall bit rate                         : 1 226 kb/s\r\nMovie name                               : 18+ Crazy Lake 2016 UNCENSORED Movies HC HDRip XviD AAC New Source &#x263B;rDX&#x263B;\r\n\r\nVideo\r\nID                                       : 2\r\nFormat                                   : AVC\r\nFormat/Info                              : Advanced Video Codec\r\nFormat profile                           : <a class=\"__cf_email__\" href=\"/cdn-cgi/l/email-protection\" data-cfemail=\"3e735f57507e720d\">[email&#xA0;protected]</a><script data-cfhash=\"f9e31\" type=\"text/javascript\">/* <![CDATA[ */!function(t,e,r,n,c,a,p){try{t=document.currentScript||function(){for(t=document.getElementsByTagName('script'),e=t.length;e--;)if(t[e].getAttribute('data-cfhash'))return t[e]}();if(t&&(c=t.previousSibling)){p=t.parentNode;if(a=c.getAttribute('data-cfemail')){for(e='',r='0x'+a.substr(0,2)|0,n=2;a.length-n;n+=2)e+='%'+('0'+('0x'+a.substr(n,2)^r).toString(16)).slice(-2);p.replaceChild(document.createTextNode(decodeURIComponent(e)),c)}p.removeChild(t)}}catch(u){}}()/* ]]> */</script>\r\nFormat settings, CABAC                   : Yes\r\nFormat settings, ReFrames                : 2 frames\r\nFormat settings, GOP                     : M=1, N=12\r\nCodec ID                                 : V_MPEG4/ISO/AVC\r\nDuration                                 : 1 h 19 min\r\nBit rate mode                            : Constant\r\nBit rate                                 : 1 099 kb/s\r\nWidth                                    : 720 pixels\r\nHeight                                   : 304 pixels\r\nDisplay aspect ratio                     : 2.35:1\r\nFrame rate mode                          : Constant\r\nFrame rate                               : 23.976 (24000/1001) FPS\r\nColor space                              : YUV\r\nChroma subsampling                       : 4:2:0\r\nBit depth                                : 8 bits\r\nScan type                                : Progressive\r\nBits/(Pixel*Frame)                       : 0.209\r\nStream size                              : 611 MiB (88%)\r\nTitle                                    : &#x263B;rDX&#x263B;\r\nDefault                                  : Yes\r\nForced                                   : No\r\n\r\nAudio\r\nID                                       : 1\r\nFormat                                   : AC-3\r\nFormat/Info                              : Audio Coding 3\r\nMode extension                           : CM (complete main)\r\nFormat settings, Endianness              : Big\r\nCodec ID                                 : A_AC3\r\nDuration                                 : 1 h 19 min\r\nBit rate mode                            : Constant\r\nBit rate                                 : 128 kb/s\r\nChannel(s)                               : 2 channels\r\nChannel positions                        : Front: L R\r\nSampling rate                            : 48.0 kHz\r\nFrame rate                               : 31.250 FPS (1536 spf)\r\nBit depth                                : 16 bits\r\nCompression mode                         : Lossy\r\nStream size                              : 72.9 MiB (10%)\r\nTitle                                    : &#x263B;rDX&#x263B;\r\nDefault                                  : Yes\r\nForced                                   : No","last_updated":"2017-07-22T12:02:31.715Z","parsed":{"xt":"urn:btih:3845c2c1f56e53df4e81d7044237d88e016d4c09","dn":"18  Crazy Lake 2016 UNCENSORED Movies HC HDRip XviD New  Sample ","tr":["udp://exodus.desync.com:6969","udp://open.demonii.com:1337","udp://tracker.coppersurfer.tk:6969","udp://tracker.leechers-paradise.org:6969","udp://zer0day.ch:1337"],"infoHash":"3845c2c1f56e53df4e81d7044237d88e016d4c09","infoHashBuffer":{"type":"Buffer","data":[56,69,194,193,245,110,83,223,78,129,215,4,66,55,216,142,1,109,76,9]},"name":"18  Crazy Lake 2016 UNCENSORED Movies HC HDRip XviD New  Sample ","announce":["udp://exodus.desync.com:6969","udp://open.demonii.com:1337","udp://tracker.coppersurfer.tk:6969","udp://tracker.leechers-paradise.org:6969","udp://zer0day.ch:1337"],"urlList":[]}}